<svg id="Layer_1" data-name="Layer 1" xmlns="http://www.w3.org/2000/svg" viewBox="0 0 206.09 143.23"><defs><style>.cls-1{fill:#fff;}.cls-2{fill:#006837;}.cls-3{fill:#754c24;}.cls-4{fill:#046837;}</style></defs><ellipse class="cls-1" cx="103.05" cy="71.62" rx="103.05" ry="71.62"/><path class="cls-2" d="M136.24,135.57c-4.39-2.34-8.94-4.42-13.13-7.07a26.94,26.94,0,0,1-11-12.61c-.39-1-.79-1.91-1.19-2.86l-.41-3a39.62,39.62,0,0,1,.95-6c.76-2.45.83-4.64-.82-6.71l.6-.08a31.12,31.12,0,0,0,7.4,3.78c6.92,2.22,13.48,5.26,19,10.21,4.11,3.7,6.8,8.11,6.44,13.92-.19,3.09-1.46,5.81-2.8,8.51l-.65.51c-.11-2.67-1.83-4.49-3.46-6.29-5.35-5.93-11.69-10.74-18-15.56a2.43,2.43,0,0,0-.84-.25,3.55,3.55,0,0,0,1,1.49c5.42,5.94,10.88,11.85,16.25,17.84a25.18,25.18,0,0,1,2.35,3.72Z" transform="translate(-29.33 -56.92)"/><path class="cls-3" d="M136.24,135.57l1.62-.5,2.76-.95.65-.51c1.18,1.38,2.65,2.61,3.49,4.17,2,3.77,3.75,7.69,5.51,11.59.69,1.53,0,2.71-1.63,3.11a4.79,4.79,0,0,1-1.94.3c-.56-.12-1.44-.68-1.47-1.09-.3-4.34-2.82-7.58-5.23-10.87-1-1.31-2.09-2.5-3.09-3.79A6.94,6.94,0,0,1,136.24,135.57Z" transform="translate(-29.33 -56.92)"/><path class="cls-4" d="M81.73,100.72a6.47,6.47,0,0,1,.78,5.85,10.56,10.56,0,0,1-3.51,5,7.6,7.6,0,0,1-7.75,1.4,18.86,18.86,0,0,1-7.16-4.8,19.29,19.29,0,0,1-5.18-8.7c-1.1-4.22-.09-7.74,2.87-10.16a5.85,5.85,0,0,1,1.35-.67,8.49,8.49,0,0,1,6.34.41,10.7,10.7,0,0,1,4.82,3.64c1.86,2.68,2.22,4.4,1.11,5.21-.64.47-1.14.46-1.51,0a5.17,5.17,0,0,1-.23-1.28,3.52,3.52,0,0,0-.47-1.64,13,13,0,0,0-4.31-3.77c-2.31-1.27-4.28-1.27-5.81,0a6.08,6.08,0,0,0-2,5.66A12.47,12.47,0,0,0,63,102.27a27.35,27.35,0,0,0,3.15,4.16,19.72,19.72,0,0,0,4.79,4,6.49,6.49,0,0,0,5.88.23,6.07,6.07,0,0,0,1.43-.77,6.89,6.89,0,0,0,2-2.77,6.5,6.5,0,0,0,.45-3.42,5.6,5.6,0,0,0-.51-2.09c-.34-.47-.88-.46-1.62.08a9.57,9.57,0,0,0-3,3.3,13.49,13.49,0,0,0-.72,1.59c-.67.56-1.47.32-2.38-.76a.91.91,0,0,1-.11-1,10.4,10.4,0,0,1,1.88-2.47,18.26,18.26,0,0,1,2.33-2.27,4,4,0,0,1,2.83-.84A3.07,3.07,0,0,1,81.73,100.72Z" transform="translate(-29.33 -56.92)"/><path class="cls-4" d="M87.22,88.58q.07.15.27.63c-.07.64-.25,1-.55,1.19a.7.7,0,0,1-.7-.07c-.87-1.44-1.93-1.83-3.15-1.13-.8.45-.8,2.28.1,5.41a17,17,0,0,0,2,4.18,30.21,30.21,0,0,0,2.52,3.76l.42.33a1.81,1.81,0,0,1,.42.42c.31.5.15.94-.47,1.33s-1.3.27-1.81-.52a2.45,2.45,0,0,1-.23-.54,3.74,3.74,0,0,0-.24-.54q-1.19-1.84-3.73-5.45t-3.75-5.43q-.44-.68-.27-1a2.44,2.44,0,0,1,.9-.79c.62-.38,1.1-.4,1.45-.05l.89,1.29c.07-1.3.15-2,.18-2.21a2.73,2.73,0,0,1,1.23-1.87,3.17,3.17,0,0,1,1.59-.37,4.69,4.69,0,0,1,1.63.53A3.26,3.26,0,0,1,87.22,88.58Z" transform="translate(-29.33 -56.92)"/><path class="cls-4" d="M102.67,93c.4,1.1.07,2.33-.92,3.72a7,7,0,0,1-2.83,2.56c-2.89,1.29-5.34,0-7.43-4a20,20,0,0,1-1.92-6.24c-.44-3.12.13-5,1.61-5.71a6.93,6.93,0,0,1,4.89,0c2,.61,3.14,1.56,3.58,2.76a6,6,0,0,1-.31,4.75A6.6,6.6,0,0,1,96,94.27a3.19,3.19,0,0,1-1.05,0,2.79,2.79,0,0,0-1.1.07c-.3.14-.41.31-.31.51,1.34,2.76,2.84,3.72,4.51,3a4.07,4.07,0,0,0,2-2,9.6,9.6,0,0,0,.83-2.35c.2-.79.38-1.21.53-1.27C102,92.05,102.41,92.3,102.67,93Zm-5.13-5.93A4.52,4.52,0,0,0,95.79,85a2.52,2.52,0,0,0-2.52-.26,3,3,0,0,0-1.67,2.94,7.3,7.3,0,0,0,.71,3.51,2.78,2.78,0,0,0,1.49,1.45,2.52,2.52,0,0,0,2-.06,3.29,3.29,0,0,0,1.9-2.33A4.79,4.79,0,0,0,97.54,87.08Z" transform="translate(-29.33 -56.92)"/><path class="cls-4" d="M114.77,89.55c.24,1.15-.25,2.32-1.41,3.55a6.91,6.91,0,0,1-3.13,2.14c-3,.85-5.24-.74-6.74-5a20.21,20.21,0,0,1-1-6.44c0-3.15.82-5,2.36-5.42a6.87,6.87,0,0,1,4.79.74c1.85.89,2.87,2,3.14,3.24a6,6,0,0,1-.95,4.65,6.49,6.49,0,0,1-3.7,2.88,3,3,0,0,1-1-.12,2.64,2.64,0,0,0-1.09-.08c-.31.1-.44.25-.37.45.94,2.92,2.27,4.09,4,3.6A4.08,4.08,0,0,0,111.87,92,10.58,10.58,0,0,0,113,89.82c.31-.76.54-1.15.69-1.18C114.25,88.51,114.61,88.82,114.77,89.55ZM110.54,83a4.55,4.55,0,0,0-1.42-2.35,2.53,2.53,0,0,0-2.45-.62,3,3,0,0,0-2,2.67,7.28,7.28,0,0,0,.21,3.57,2.79,2.79,0,0,0,1.27,1.64,2.4,2.4,0,0,0,2,.23,3.27,3.27,0,0,0,2.19-2A4.85,4.85,0,0,0,110.54,83Z" transform="translate(-29.33 -56.92)"/><path class="cls-4" d="M128.29,91.92c-.11.3-.29.46-.53.47a2.74,2.74,0,0,1-1.24-.47l0-.32-.09-1.07c0-.48-.06-.83-.08-1-.68-8.82-2.18-13.16-4.5-12.9-.72.08-1.44.68-2.11,1.79-1.72,2.77-2.14,6.07-1.5,9.82a20,20,0,0,0,.57,2.16,15.78,15.78,0,0,1,.56,2.16c.07.39-.13.63-.6.71-.9.15-1.5-.58-1.82-2.24-.57-3-1.13-5.94-1.7-8.92,0-.23-.09-.57-.15-1s-.11-.79-.16-1a10.25,10.25,0,0,0-.42-1.47,11.8,11.8,0,0,1-.43-1.43c0-.21.09-.48.39-.82a1.46,1.46,0,0,1,.74-.56,1.32,1.32,0,0,1,1.1.37c.2,1.73.33,2.73.38,3s.15.78.24,1.14c.22-.12.47-.61.75-1.46a8.85,8.85,0,0,1,1-2.26,3,3,0,0,1,2.15-1.42,4.86,4.86,0,0,1,1.56.19,5.26,5.26,0,0,1,3.44,2.33,17.88,17.88,0,0,1,2.1,8.24Z" transform="translate(-29.33 -56.92)"/><path class="cls-4" d="M161.79,70l-.89.31a1.81,1.81,0,0,0-.66.58q-1.55,2-4.09,11.93c.89.43,1.28.86,1.17,1.28a1.62,1.62,0,0,1-.57.8c-.28,0-.69.1-1.22.2a50.43,50.43,0,0,0-.84,5.1,11.89,11.89,0,0,0,.07,1.25,4.69,4.69,0,0,1,0,1.15,1.79,1.79,0,0,1-.54.86,1,1,0,0,1-.85.29c-.62-.15-.93-.76-.93-1.86,0-.13.09-1,.26-2.54s.28-2.57.38-3a7.17,7.17,0,0,1,.4-1.31,25,25,0,0,0-5.73-.36c-1.9.08-3.79.24-5.66.46l-.75.66c-.06,1-.13,2-.22,3.06a6,6,0,0,0,.44,3.07c-.13.34-.29.5-.49.48a1.67,1.67,0,0,0-.71.12,1.69,1.69,0,0,1-.63.13c-.44,0-.65-1-.65-3,0-1.24.08-2.48.13-3.72l-.24-.41h-.15a1.52,1.52,0,0,1-.9-.34.91.91,0,0,1-.38-.8,2,2,0,0,1,.39-.88c.25-.38.49-.56.73-.55h.21l.21,0,.2,0q.15-1.75.47-7c.29-4.64.83-7.77,1.69-9.39a1.69,1.69,0,0,1,1.74-.94,2.66,2.66,0,0,1,1.38.55,1.23,1.23,0,0,1,.58,1.12,3.84,3.84,0,0,1-.53,1c-.37.63-.58,1-.62,1.1-1.07,2.47-1.78,6.29-2.22,11.44q-.15,1.8.51,1.86c.13,0,.83-.06,2.12-.18a27.65,27.65,0,0,1,5.77,0,5.93,5.93,0,0,0,1.24,0,6.35,6.35,0,0,1,1.7.11c.53.11.87-.2,1-.94l.66-3.46a43.43,43.43,0,0,1,1.78-6.57c1.2-3.4,2.43-5,3.62-4.67a2.19,2.19,0,0,1,1.43,1.22A2.77,2.77,0,0,1,161.79,70Z" transform="translate(-29.33 -56.92)"/><path class="cls-4" d="M170.65,91.37a12.75,12.75,0,0,1-3.67,5c-1.81,1.48-3.53,1.89-5.3,1.27a4.91,4.91,0,0,1-3.33-3.74,11.33,11.33,0,0,1,.36-5.64,14.86,14.86,0,0,1,3.33-6c2-2.2,4.14-2.95,6.14-2.24a5,5,0,0,1,1.87,1.63C172.2,84.29,172.31,87.57,170.65,91.37Zm-1.72-.76A14,14,0,0,0,170,86.09c.07-2-.6-3.3-2-3.8-1.59-.58-3.19,0-4.71,1.73a12.74,12.74,0,0,0-2.56,4.69,12.09,12.09,0,0,0-.61,4.25c.13,1.7.8,2.74,2,3.18s2.68,0,4.07-1.39A12.73,12.73,0,0,0,168.93,90.61Z" transform="translate(-29.33 -56.92)"/><path class="cls-4" d="M183.85,108.27a2.57,2.57,0,0,1-1.26-.26,1.78,1.78,0,0,1-.44-.65l1.24-1.78,1.24-1.78c4.72-6.74,6.32-10.66,4.76-11.69-.91-.6-2.41,0-4.4,1.75a18.08,18.08,0,0,0-3.47,4l-2.07,3.42a3.75,3.75,0,0,0-.32.86,3.53,3.53,0,0,1-.3.82.9.9,0,0,1-.68.34,1.22,1.22,0,0,1-.76-.09,1.06,1.06,0,0,1-.38-.8,1.48,1.48,0,0,1,.07-1l4-7a13.65,13.65,0,0,0,1.21-3c.48-1.63.46-2.59,0-2.87-.28-.15-.87,0-1.77.32a13.62,13.62,0,0,0-7,7,20,20,0,0,0-.76,1.88,18.27,18.27,0,0,1-.74,1.84c-.36.71-.8.94-1.34.68a1,1,0,0,1-.52-.69,7,7,0,0,1,.47-1.77q.45-1.38.66-1.86,2-4.27,4-8.56c1.15-2.47,2-3.56,2.66-3.26a1.42,1.42,0,0,1,.64.73,1,1,0,0,1,.06.9,13.21,13.21,0,0,1-1.2,1.86c-.66,1-1.07,1.6-1.22,1.85l.09.27c1-.8,2-1.59,3-2.37,1.35-1,2.52-1.17,3.46-.66,1.33.72,1.75,2.69,1.13,5.8a8.27,8.27,0,0,0,1.94-1.17,8.76,8.76,0,0,1,2.13-1.22,2.57,2.57,0,0,1,2.26.3,3.93,3.93,0,0,1,1.4,2.68c.48,2.45-.69,5.5-3.37,9.17Z" transform="translate(-29.33 -56.92)"/><path class="cls-4" d="M196.94,113.93c-.83.83-2.12,1-3.85.65a7.79,7.79,0,0,1-3.66-1.59c-2.5-2.17-2.44-4.93.31-8.55a19.6,19.6,0,0,1,4.84-4.39c2.65-1.7,4.69-2,6-.88a7.45,7.45,0,0,1,2.21,4.59c.34,2.1,0,3.6-.88,4.51a5.83,5.83,0,0,1-4.52,1.64,7.08,7.08,0,0,1-4.62-1.69,3.38,3.38,0,0,1-.52-1,3,3,0,0,0-.56-1c-.27-.22-.47-.24-.6-.08-1.92,2.4-2.14,4.18-.69,5.43a4.5,4.5,0,0,0,2.76,1.07,10.21,10.21,0,0,0,2.54-.19c.83-.13,1.3-.13,1.42,0C197.52,112.92,197.47,113.4,196.94,113.93Zm3.08-7.27a4.33,4.33,0,0,0,1.15-2.51,2.7,2.7,0,0,0-.91-2.48,3.16,3.16,0,0,0-3.46-.33,7.15,7.15,0,0,0-2.9,2.12,2.73,2.73,0,0,0-.65,2,2.69,2.69,0,0,0,1,1.85,3.5,3.5,0,0,0,3,.81A4.62,4.62,0,0,0,200,106.66Z" transform="translate(-29.33 -56.92)"/><path class="cls-4" d="M118.83,179.94a13.88,13.88,0,0,1-7.34,2q-3,0-4.17-3.77a29.78,29.78,0,0,1-.81-8.1q0-3.48.34-10.41t.33-10.35c0-.48,0-1.2-.07-2.13S107,145.5,107,145s0-.77,0-1.18a1.17,1.17,0,0,1,1.06-.73c.82,0,1.23,1.53,1.23,4.61q0,4-.46,12t-.46,12c0,5.06,1.06,7.6,3.18,7.6a7.37,7.37,0,0,0,3-1,7.45,7.45,0,0,1,3-1c.37,0,.67.27.9.82A4.65,4.65,0,0,1,118.83,179.94Z" transform="translate(-29.33 -56.92)"/><path class="cls-4" d="M122.61,159.18a22.71,22.71,0,0,1-.3,3,22.71,22.71,0,0,0-.3,3v12.43a22.65,22.65,0,0,0,.35,3.38q-.14.45-.39.45c-1.15,0-1.73-.89-1.73-2.65V158.23a1.18,1.18,0,0,1,1.77,0A1.13,1.13,0,0,1,122.61,159.18Zm.67-8.43c0,1.27-.38,1.91-1.13,1.91a1.53,1.53,0,0,1-1.23-.79,3,3,0,0,1-.57-1.8c0-1.27.4-1.91,1.2-1.91a1.47,1.47,0,0,1,1.22.73A3.19,3.19,0,0,1,123.28,150.75Z" transform="translate(-29.33 -56.92)"/><path class="cls-4" d="M135.18,158.79a66.39,66.39,0,0,1-1.27,13.33q-1.59,9.45-3.36,9.45c-1.41,0-2.71-2.38-3.88-7.14a87.19,87.19,0,0,1-1.84-10.24,46.67,46.67,0,0,1-.35-5.79,1.76,1.76,0,0,1,.3-.93c.2-.32.39-.48.58-.48s.71.38,1.27,1.13a13.53,13.53,0,0,0-.14,1.91,48.62,48.62,0,0,0,.85,8.27,69.81,69.81,0,0,0,1.83,7.87c.41,1.28.73,1.91,1,1.91q1.38,0,2.4-8.83a102.76,102.76,0,0,0,.78-11.13,1.17,1.17,0,0,1,.34-.74c.22-.26.41-.39.58-.39C134.85,157,135.15,157.59,135.18,158.79Z" transform="translate(-29.33 -56.92)"/><path class="cls-4" d="M140.05,159.18a22.71,22.71,0,0,1-.3,3,22.71,22.71,0,0,0-.3,3v12.43a21.38,21.38,0,0,0,.35,3.38q-.13.45-.39.45c-1.15,0-1.73-.89-1.73-2.65V158.23a1.18,1.18,0,0,1,1.77,0A1.13,1.13,0,0,1,140.05,159.18Zm.67-8.43c0,1.27-.38,1.91-1.13,1.91a1.56,1.56,0,0,1-1.24-.79,3,3,0,0,1-.56-1.8c0-1.27.4-1.91,1.2-1.91a1.47,1.47,0,0,1,1.22.73A3.19,3.19,0,0,1,140.72,150.75Z" transform="translate(-29.33 -56.92)"/><path class="cls-4" d="M153.67,181.46c-.13.41-.32.62-.56.62s-.65-.27-1.2-.79v-3.43q0-18.68-2.92-18.68c-.61,0-1.26.72-2,2.14q-2.67,5.3-2.67,13.33c0,.72.07,1.76.2,3.12s.19,2.41.19,3.13c0,.56-.24.84-.71.84-.92,0-1.37-1.18-1.37-3.54V165.43q0-.51,0-1.47c0-.63,0-1.12,0-1.46s0-1.2-.12-2.13-.13-1.64-.13-2.09a1.87,1.87,0,0,1,.44-1c.3-.39.53-.59.69-.59s.59.27.85.79c-.07,2.44-.11,3.86-.11,4.27,0,.57,0,1.11,0,1.64.21-.12.49-.73.85-1.86a15.37,15.37,0,0,1,1.13-2.92c.56-1,1.21-1.58,1.94-1.58a2.91,2.91,0,0,1,1.27.51,6.28,6.28,0,0,1,2.72,3.71A41.14,41.14,0,0,1,153.67,173Z" transform="translate(-29.33 -56.92)"/><path class="cls-4" d="M166.35,164.3c0,.23,0,.55,0,1a73.48,73.48,0,0,0-.74,9.06c0,1.16,0,2.94.11,5.34s.1,4.2.1,5.4a26.18,26.18,0,0,1-.35,5.06,6.32,6.32,0,0,1-1.63,3.09,3.45,3.45,0,0,1-2.47,1.24,7.51,7.51,0,0,1-3.42-1c-1.65-.82-2.47-1.82-2.47-3s.25-1.52.74-1.52c.21,0,.4.23.56.68a5.71,5.71,0,0,0,.46,1.06,2.83,2.83,0,0,0,1.45.85,4.63,4.63,0,0,0,1.59.45c1.32,0,2.32-.83,3-2.48a14.07,14.07,0,0,0,.88-5.45,33.39,33.39,0,0,0-.39-5.74q-1.69,3.54-4.06,3.54a2.79,2.79,0,0,1-1.65-.76,5.09,5.09,0,0,1-1.42-1.66,12.81,12.81,0,0,1-.95-5.68,53,53,0,0,1,1.09-10.29c.95-4.76,2.18-7.14,3.71-7.14,1.22,0,2.52,1.76,3.88,5.28.15.42.37,1,.67,1.63A6.46,6.46,0,0,1,166.35,164.3Zm-2.12,3.1a3.46,3.46,0,0,0-.53-2,13.25,13.25,0,0,0-.74-4.05c-.54-1.39-1.27-2.08-2.19-2.08-.64,0-1.27,1.14-1.91,3.43a31,31,0,0,0-1,4.84,55,55,0,0,0-.35,5.73c0,4.62.83,6.92,2.5,6.92q1.91,0,3.18-5.06A33.21,33.21,0,0,0,164.23,167.4Z" transform="translate(-29.33 -56.92)"/></svg>